# xmcd CD database file
#
# Track frame offsets:
#	150
#	19652
#	28782
#	43044
#	54419
#	63904
#	75079
#	92484
#	109874
#	120850
#	131770
#	145952
#	157763
#	168561
#	180062
#	194485
#	204959
#	217598
#	234893
#	246885
#	257034
#	268274
#	278927
#	293938
#	308283
#	320246
#	336752
#
# Disc length: 4718 seconds
#
# Revision: 0
# Processed by: cddbd v1.5.2PL0 Copyright (c) Steve Scherf et al.
# Submitted via: CDex 1.73
#
DISCID=6b126c1b
DTITLE=In the style of... - a Shadows Tribute (disc2)
DYEAR=2005
DGENRE=Blues
TTITLE0=01 - I Know Him So Well
TTITLE1=02 - Sweet Dreams
TTITLE2=03 - Summer Love '59
TTITLE3=04 - Diamonds
TTITLE4=05 - It's Been A Blue Day
TTITLE5=06 - 1861
TTITLE6=07 - That'll Be The Day
TTITLE7=08 - Sacha
TTITLE8=09 - Tonight
TTITLE9=10 - Chattanooga Choo-Choo
TTITLE10=11 - Rides In The Sky
TTITLE11=12 - Somewhere
TTITLE12=13 - Theme From Filleted Place
TTITLE13=14 - The High and The Mighty
TTITLE14=15 - Cosy
TTITLE15=16 - Stars Fell On Stockton
TTITLE16=17 - Bossa Roo
TTITLE17=18 - Jessica
TTITLE18=19 - Quartermaster's Stores
TTITLE19=20 - Perfidia
TTITLE20=21 - Now That You're Gone
TTITLE21=22 - Adios Muchachos
TTITLE22=23 - Don't Cry For Me Argentina
TTITLE23=24 - Albatross
TTITLE24=25 - Granada
TTITLE25=26 - Memory
TTITLE26=27 - Black Is Black
EXTD=YEAR: 2005
EXTT0=
EXTT1=
EXTT2=
EXTT3=
EXTT4=
EXTT5=
EXTT6=
EXTT7=
EXTT8=
EXTT9=
EXTT10=
EXTT11=
EXTT12=
EXTT13=
EXTT14=
EXTT15=
EXTT16=
EXTT17=
EXTT18=
EXTT19=
EXTT20=
EXTT21=
EXTT22=
EXTT23=
EXTT24=
EXTT25=
EXTT26=
PLAYORDER=
